<?xml version="1.0" encoding="utf-8"?>
<svg version="1.1" xmlns:xlink="http://www.w3.org/1999/xlink" width="85px" height="36px" xmlns="http://www.w3.org/2000/svg">
  <g transform="matrix(1 0 0 1 -1249 -177 )">
    <path d="M 1250 181  A 3 3 0 0 1 1253 178 L 1330 178  A 3 3 0 0 1 1333 181 L 1333 209  A 3 3 0 0 1 1330 212 L 1253 212  A 3 3 0 0 1 1250 209 L 1250 181  Z " fill-rule="nonzero" fill="#ff3399" stroke="none" fill-opacity="0.0980392156862745" />
    <path d="M 1249.5 181  A 3.5 3.5 0 0 1 1253 177.5 L 1330 177.5  A 3.5 3.5 0 0 1 1333.5 181 L 1333.5 209  A 3.5 3.5 0 0 1 1330 212.5 L 1253 212.5  A 3.5 3.5 0 0 1 1249.5 209 L 1249.5 181  Z " stroke-width="1" stroke-dasharray="9,4" stroke="#ff3399" fill="none" stroke-dashoffset="0.5" />
  </g>
</svg>