<?xml version="1.0" encoding="utf-8"?>
<svg version="1.1" xmlns:xlink="http://www.w3.org/1999/xlink" width="14px" height="14px" xmlns="http://www.w3.org/2000/svg">
  <g transform="matrix(1 0 0 1 -1145 -1424 )">
    <path d="M 1152 1424  C 1155.92 1424  1159 1427.08  1159 1431  C 1159 1434.92  1155.92 1438  1152 1438  C 1148.08 1438  1145 1434.92  1145 1431  C 1145 1427.08  1148.08 1424  1152 1424  Z " fill-rule="nonzero" fill="#ffffff" stroke="none" fill-opacity="0" />
    <path d="M 1152 1424.5  C 1155.64 1424.5  1158.5 1427.36  1158.5 1431  C 1158.5 1434.64  1155.64 1437.5  1152 1437.5  C 1148.36 1437.5  1145.5 1434.64  1145.5 1431  C 1145.5 1427.36  1148.36 1424.5  1152 1424.5  Z " stroke-width="1" stroke="#d9d9d9" fill="none" />
  </g>
</svg>