<?xml version="1.0" encoding="utf-8"?>
<svg version="1.1" xmlns:xlink="http://www.w3.org/1999/xlink" width="14px" height="14px" xmlns="http://www.w3.org/2000/svg">
  <g transform="matrix(1 0 0 1 -1057 -1337 )">
    <path d="M 1064 1337  C 1067.92 1337  1071 1340.08  1071 1344  C 1071 1347.92  1067.92 1351  1064 1351  C 1060.08 1351  1057 1347.92  1057 1344  C 1057 1340.08  1060.08 1337  1064 1337  Z " fill-rule="nonzero" fill="#ffffff" stroke="none" fill-opacity="0" />
    <path d="M 1064 1337.5  C 1067.64 1337.5  1070.5 1340.36  1070.5 1344  C 1070.5 1347.64  1067.64 1350.5  1064 1350.5  C 1060.36 1350.5  1057.5 1347.64  1057.5 1344  C 1057.5 1340.36  1060.36 1337.5  1064 1337.5  Z " stroke-width="1" stroke="#1890ff" fill="none" />
  </g>
</svg>