<?xml version="1.0" encoding="utf-8"?>
<svg version="1.1" xmlns:xlink="http://www.w3.org/1999/xlink" width="14px" height="14px" xmlns="http://www.w3.org/2000/svg">
  <g transform="matrix(1 0 0 1 -1146 -1337 )">
    <path d="M 1153 1337  C 1156.92 1337  1160 1340.08  1160 1344  C 1160 1347.92  1156.92 1351  1153 1351  C 1149.08 1351  1146 1347.92  1146 1344  C 1146 1340.08  1149.08 1337  1153 1337  Z " fill-rule="nonzero" fill="#ffffff" stroke="none" fill-opacity="0" />
    <path d="M 1153 1337.5  C 1156.64 1337.5  1159.5 1340.36  1159.5 1344  C 1159.5 1347.64  1156.64 1350.5  1153 1350.5  C 1149.36 1350.5  1146.5 1347.64  1146.5 1344  C 1146.5 1340.36  1149.36 1337.5  1153 1337.5  Z " stroke-width="1" stroke="#d9d9d9" fill="none" />
  </g>
</svg>