<?xml version="1.0" encoding="utf-8"?>
<svg version="1.1" xmlns:xlink="http://www.w3.org/1999/xlink" width="319px" height="135px" xmlns="http://www.w3.org/2000/svg">
  <g transform="matrix(1 0 0 1 -493 -1082 )">
    <path d="M 494 1086  A 3 3 0 0 1 497 1083 L 808 1083  A 3 3 0 0 1 811 1086 L 811 1213  A 3 3 0 0 1 808 1216 L 497 1216  A 3 3 0 0 1 494 1213 L 494 1086  Z " fill-rule="nonzero" fill="#ff3399" stroke="none" fill-opacity="0.0980392156862745" />
    <path d="M 493.5 1086  A 3.5 3.5 0 0 1 497 1082.5 L 808 1082.5  A 3.5 3.5 0 0 1 811.5 1086 L 811.5 1213  A 3.5 3.5 0 0 1 808 1216.5 L 497 1216.5  A 3.5 3.5 0 0 1 493.5 1213 L 493.5 1086  Z " stroke-width="1" stroke-dasharray="9,4" stroke="#ff3399" fill="none" stroke-dashoffset="0.5" />
  </g>
</svg>