<?xml version="1.0" encoding="utf-8"?>
<svg version="1.1" xmlns:xlink="http://www.w3.org/1999/xlink" width="381px" height="32px" xmlns="http://www.w3.org/2000/svg">
  <defs>
    <mask fill="white" id="clip29">
      <path d="M 0 28  L 0 4  C 0 1.75999999999999  1.52399999999999 0  3.46363636363636 0  L 377.536363636364 0  C 379.476 0  381 1.75999999999999  381 4  L 381 28  C 381 30.24  379.476 32  377.536363636364 32  L 41.5636363636364 32  L 3.46363636363636 32  C 1.52399999999999 32  0 30.24  0 28  Z " fill-rule="evenodd" />
    </mask>
  </defs>
  <g transform="matrix(1 0 0 1 -788 -920 )">
    <path d="M 0 28  L 0 4  C 0 1.75999999999999  1.52399999999999 0  3.46363636363636 0  L 377.536363636364 0  C 379.476 0  381 1.75999999999999  381 4  L 381 28  C 381 30.24  379.476 32  377.536363636364 32  L 41.5636363636364 32  L 3.46363636363636 32  C 1.52399999999999 32  0 30.24  0 28  Z " fill-rule="nonzero" fill="#ffffff" stroke="none" transform="matrix(1 0 0 1 788 920 )" />
    <path d="M 0 28  L 0 4  C 0 1.75999999999999  1.52399999999999 0  3.46363636363636 0  L 377.536363636364 0  C 379.476 0  381 1.75999999999999  381 4  L 381 28  C 381 30.24  379.476 32  377.536363636364 32  L 41.5636363636364 32  L 3.46363636363636 32  C 1.52399999999999 32  0 30.24  0 28  Z " stroke-width="2" stroke="#d9d9d9" fill="none" transform="matrix(1 0 0 1 788 920 )" mask="url(#clip29)" />
  </g>
</svg>