<?xml version="1.0" encoding="utf-8"?>
<svg version="1.1" xmlns:xlink="http://www.w3.org/1999/xlink" width="195px" height="112px" xmlns="http://www.w3.org/2000/svg">
  <g transform="matrix(1 0 0 1 -169 -1475 )">
    <path d="M 170 1481  A 5 5 0 0 1 175 1476 L 358 1476  A 5 5 0 0 1 363 1481 L 363 1581  A 5 5 0 0 1 358 1586 L 175 1586  A 5 5 0 0 1 170 1581 L 170 1481  Z " fill-rule="nonzero" fill="#000000" stroke="none" fill-opacity="0.0196078431372549" />
    <path d="M 169.5 1481  A 5.5 5.5 0 0 1 175 1475.5 L 358 1475.5  A 5.5 5.5 0 0 1 363.5 1481 L 363.5 1581  A 5.5 5.5 0 0 1 358 1586.5 L 175 1586.5  A 5.5 5.5 0 0 1 169.5 1581 L 169.5 1481  Z " stroke-width="1" stroke-dasharray="9,4" stroke="#108ee9" fill="none" stroke-dashoffset="0.5" />
  </g>
</svg>